{"title":"Great Grand Masti (2016) 720p mHD DVDSCR x264 AAC [DDR]","uid":15223355,"size":1664597832,"categoryP":"video","categoryS":"hd___movies","magnet":"?xt=urn:btih:2969c78f79973221740ce24ea2e4be1ffe8b87c3&amp;dn=Great+Grand+Masti+%282016%29+720p+mHD+DVDSCR+x264+AAC+%5BDDR%5D&amp;tr=udp%3A%2F%2Ftracker.leechers-paradise.org%3A6969&amp;tr=udp%3A%2F%2Fzer0day.ch%3A1337&amp;tr=udp%3A%2F%2Fopen.demonii.com%3A1337&amp;tr=udp%3A%2F%2Ftracker.coppersurfer.tk%3A6969&amp;tr=udp%3A%2F%2Fexodus.desync.com%3A6969","seeders":39,"leechers":6,"uploader":"SaM","files":3,"time":1467752135,"description":"- BollywooD MoviE -\r\n**- Great Grand Masti -**\r\n- 2016 -\r\n** 720p DvDSCR rip / XviD / AAC **\r\n \nhttp://extraimago.com/image/akbi \nhttp://extraimago.com/image/akbI \nhttp://extraimago.com/image/akbd \nhttp://extraimago.com/image/akbh \nhttp://extraimago.com/image/akbb \nhttp://extraimago.com/image/akb3 \nhttp://extraimago.com/image/akbl \nhttp://extraimago.com/image/akb9\r\n\r\n[ Specs ]\r\nGeneral\r\nSource = MP4 DUMP @ Nara Munu (Thanks for this leak)\r\nFormat : Matroska\r\nFile size : 1.53 GiB\r\nDuration : 2h 14mn\r\nOverall bit rate : 1 629 Kbps\r\nEncoded date : UTC 2016-07-05 14:09:03\r\n\r\nVideo\r\nFormat : AVC\r\nFormat/Info : Advanced Video Codec\r\nFormat profile :   \r\nFormat settings, CABAC : Yes\r\nFormat settings, ReFrames : 12 frames\r\nDuration : 2h 14mn\r\nBit rate : 1 500 Kbps\r\nWidth : 1 280 pixels\r\nHeight : 544 pixels\r\nDisplay aspect ratio : 2.35:1\r\nFrame rate mode : Constant\r\nFrame rate : 50.000 fps\r\nColor space : YUV\r\nChroma subsampling : 4:2:0\r\nBit depth : 8 bits\r\nScan type : Progressive\r\nBits/(Pixel*Frame) : 0.043\r\nStream size : 1.40 GiB (92%)\r\nLanguage : English\r\nDefault : Yes\r\nForced : No\r\nColor range : Limited\r\nColor primaries : BT.709\r\n\r\nAudio\r\nFormat : AAC\r\nFormat/Info : Advanced Audio Codec\r\nFormat profile : LC\r\nCodec ID : A_AAC\r\nDuration : 2h 14mn\r\nBit rate : 125 Kbps\r\nChannel(s) : 2 channels\r\nChannel positions : Front: L R\r\nSampling rate : 44.1 KHz\r\nFrame rate : 43.066 fps (1024 spf)\r\nCompression mode : Lossy\r\nStream size : 120 MiB (8%)\r\nLanguage : Hindi\r\nDefault : Yes\r\nForced : No\r\n\r\n\r\nChapters: None on source\r\nSample: YES - included\r\n\r\nA DDR Exclusive Release...!","torrent":{"xt":"urn:btih:2969c78f79973221740ce24ea2e4be1ffe8b87c3","amp;dn":"Great+Grand+Masti+%282016%29+720p+mHD+DVDSCR+x264+AAC+%5BDDR%5D","amp;tr":["udp%3A%2F%2Ftracker.leechers-paradise.org%3A6969","udp%3A%2F%2Fzer0day.ch%3A1337","udp%3A%2F%2Fopen.demonii.com%3A1337","udp%3A%2F%2Ftracker.coppersurfer.tk%3A6969","udp%3A%2F%2Fexodus.desync.com%3A6969"],"infoHash":"2969c78f79973221740ce24ea2e4be1ffe8b87c3","infoHashBuffer":{"type":"Buffer","data":[41,105,199,143,121,151,50,33,116,12,226,78,162,228,190,31,254,139,135,195]},"announce":[],"urlList":[]}}